<svg width="1024" height="238" viewBox="0 0 1024 238" fill="none" xmlns="http://www.w3.org/2000/svg">
<g clip-path="url(#clip0_1065_50717)">
<path d="M-132.264 417.944C-132.264 417.944 74.0531 93.1984 194.335 111.877C314.616 130.556 555.471 445.505 502.343 637.783C449.215 830.06 695.712 776.322 695.712 776.322" stroke="#F3F3F3" stroke-width="0.416343" stroke-miterlimit="10"/>
<path d="M-128.156 422.427C-128.156 421.802 67.1184 92.9458 188.63 109.136C310.141 125.326 542.045 442.136 494.482 631.487C446.911 820.838 693.212 769.958 693.212 769.958" stroke="#F3F3F3" stroke-width="0.416343" stroke-miterlimit="10"/>
<path d="M-124.035 426.898C-124.039 425.648 60.1935 92.6831 182.943 106.376C305.692 120.068 528.635 438.755 486.63 625.175C444.633 811.597 690.729 763.573 690.729 763.573" stroke="#F3F3F3" stroke-width="0.416343" stroke-miterlimit="10"/>
<path d="M-119.916 431.397C-119.92 429.521 53.2662 92.443 177.255 103.65C301.243 114.857 515.218 435.407 478.779 618.899C442.348 802.391 688.239 757.228 688.239 757.228" stroke="#F3F3F3" stroke-width="0.416343" stroke-miterlimit="10"/>
<path d="M-115.813 435.906C-115.816 433.41 46.3235 92.2198 171.546 100.937C296.768 109.655 501.778 432.066 470.912 612.629C440.04 793.191 685.732 750.889 685.732 750.889" stroke="#F3F3F3" stroke-width="0.416343" stroke-miterlimit="10"/>
<path d="M-111.697 440.398C-111.705 437.278 39.3938 91.9741 165.854 98.2008C292.314 104.428 488.371 428.708 463.057 606.341C437.757 783.975 683.245 744.529 683.245 744.529" stroke="#F3F3F3" stroke-width="0.416343" stroke-miterlimit="10"/>
<path d="M-107.582 444.871C-107.588 441.126 32.4659 91.7163 160.16 95.4537C287.853 99.191 474.945 425.336 455.204 600.035C435.47 774.74 680.753 738.154 680.753 738.154" stroke="#F3F3F3" stroke-width="0.416343" stroke-miterlimit="10"/>
<path d="M-103.474 449.364C-103.486 444.995 25.53 91.4798 154.46 92.7211C283.391 93.9681 461.524 421.975 447.348 593.751C433.172 765.526 678.257 731.801 678.257 731.801" stroke="#F3F3F3" stroke-width="0.416343" stroke-miterlimit="10"/>
<path d="M-99.3493 453.854C-99.3604 448.859 18.6122 91.2336 148.776 89.9921C278.94 88.7505 448.117 418.623 439.499 587.463C430.883 756.306 675.769 725.445 675.769 725.445" stroke="#F3F3F3" stroke-width="0.416343" stroke-miterlimit="10"/>
<path d="M-95.2169 458.333C-95.2279 452.714 11.7023 90.9849 143.104 87.2529C274.505 83.5219 434.719 415.254 431.666 581.173C428.614 747.091 673.29 719.081 673.29 719.081" stroke="#F3F3F3" stroke-width="0.416343" stroke-miterlimit="10"/>
<path d="M-91.1214 462.804C-91.1363 456.566 4.75681 90.7215 137.39 84.5008C270.023 78.281 421.281 411.878 423.789 574.862C426.301 737.846 670.77 712.7 670.77 712.7" stroke="#F3F3F3" stroke-width="0.416343" stroke-miterlimit="10"/>
<path d="M-86.9964 467.267C-87.0109 460.403 -2.15837 90.4571 131.712 81.7478C265.582 73.0384 407.883 408.5 415.948 568.556C424.014 728.613 668.293 706.326 668.293 706.326" stroke="#F3F3F3" stroke-width="0.416343" stroke-miterlimit="10"/>
<path d="M-82.8751 471.793C-82.8894 464.304 -9.07639 90.2511 126.03 79.0586C261.137 67.8662 394.477 405.18 408.105 562.314C421.735 719.448 665.804 700.008 665.804 700.008" stroke="#F3F3F3" stroke-width="0.416343" stroke-miterlimit="10"/>
<path d="M-78.7743 476.25C-78.7929 468.138 -16.0139 89.9828 120.324 76.2967C256.662 62.6108 381.047 401.794 400.235 555.993C419.424 710.192 663.294 693.619 663.294 693.619" stroke="#F3F3F3" stroke-width="0.416343" stroke-miterlimit="10"/>
<path d="M-74.6349 480.72C-74.6532 471.982 -22.9117 89.7272 114.662 73.5523C252.236 57.3775 367.662 398.424 392.412 549.696C417.158 700.966 660.823 687.251 660.823 687.251" stroke="#F3F3F3" stroke-width="0.416343" stroke-miterlimit="10"/>
<path d="M-70.524 485.223C-70.5468 475.863 -29.8378 89.5021 108.967 70.8458C247.773 52.1896 354.249 395.085 384.553 543.43C414.855 691.773 658.323 680.911 658.323 680.911" stroke="#F3F3F3" stroke-width="0.416343" stroke-miterlimit="10"/>
<path d="M-66.3974 489.716C-66.4188 479.736 -36.7456 89.2716 103.294 68.1217C243.335 46.9773 340.854 391.736 376.718 537.152C412.584 682.569 655.841 674.564 655.841 674.564" stroke="#F3F3F3" stroke-width="0.416343" stroke-miterlimit="10"/>
<path d="M-62.2874 494.187C-62.3085 483.581 -43.6713 89.0139 97.6 65.3824C238.871 41.7518 327.438 388.371 368.86 530.854C410.281 673.343 653.341 668.196 653.341 668.196" stroke="#F3F3F3" stroke-width="0.416343" stroke-miterlimit="10"/>
<path d="M-58.165 498.652C-58.1905 487.423 -50.5808 88.7575 91.9248 62.6397C234.431 36.5209 314.046 384.995 361.022 524.557C407.999 664.12 650.849 661.823 650.849 661.823" stroke="#F3F3F3" stroke-width="0.416343" stroke-miterlimit="10"/>
<path d="M-54.0515 503.151C-54.0764 491.298 -57.4991 88.5372 86.2403 59.9254C229.98 31.3138 300.641 381.655 353.174 518.284C405.708 654.913 648.358 655.481 648.358 655.481" stroke="#F3F3F3" stroke-width="0.416343" stroke-miterlimit="10"/>
<path d="M-49.9371 507.635C-49.9623 495.157 -64.4171 88.2954 80.553 57.2039C225.523 26.1115 287.234 378.307 345.329 512.008C403.424 645.708 645.861 649.133 645.861 649.133" stroke="#F3F3F3" stroke-width="0.416343" stroke-miterlimit="10"/>
<path d="M-45.8256 512.122C-45.8552 499.02 -71.3299 88.0618 74.8694 54.4847C221.069 20.9076 273.835 374.954 337.482 505.735C401.13 636.516 643.364 642.785 643.364 642.785" stroke="#F3F3F3" stroke-width="0.416343" stroke-miterlimit="10"/>
<path d="M-51.7491 502.152C-51.7739 489.669 -64.7224 101.034 77.3496 66.6936C219.423 32.358 272.178 360.267 337.588 486.105C402.997 611.945 645.816 637.126 645.443 636.814" stroke="#F3F3F3" stroke-width="0.416343" stroke-miterlimit="10"/>
<path d="M-57.7028 492.205C-57.7275 480.342 -58.1327 114.045 79.8099 78.9449C217.752 43.8453 270.499 345.592 337.669 466.492C404.838 587.393 648.246 631.496 647.508 630.875" stroke="#F3F3F3" stroke-width="0.416343" stroke-miterlimit="10"/>
<path d="M-63.6555 482.262C-63.6814 471.017 -51.5285 127.079 82.2799 91.2179C216.094 55.3555 268.826 330.912 337.757 446.87C406.688 562.829 650.682 625.88 649.566 624.936" stroke="#F3F3F3" stroke-width="0.416343" stroke-miterlimit="10"/>
<path d="M-69.6197 472.309C-69.6404 461.684 -44.9229 140.123 84.7525 103.498C214.427 66.868 267.148 316.22 337.845 427.225C408.543 538.232 653.12 620.254 651.638 618.999" stroke="#F3F3F3" stroke-width="0.416343" stroke-miterlimit="10"/>
<path d="M-75.5805 462.307C-75.6013 452.302 -38.3005 153.144 87.233 115.749C212.766 78.3537 265.476 301.465 337.939 407.526C410.401 513.588 655.566 614.589 653.712 613.023" stroke="#F3F3F3" stroke-width="0.416343" stroke-miterlimit="10"/>
<path d="M-81.5525 452.323C-81.5738 442.934 -31.6776 166.198 89.7094 128.031C211.096 89.8635 263.799 286.712 338.026 387.819C412.254 488.926 658.002 608.934 655.776 607.05" stroke="#F3F3F3" stroke-width="0.416343" stroke-miterlimit="10"/>
<path d="M-87.5211 442.316C-87.5382 433.547 -25.0386 179.25 92.2035 140.314C209.445 101.378 262.129 271.938 338.128 368.079C414.127 464.22 660.463 603.267 657.858 601.069" stroke="#F3F3F3" stroke-width="0.416343" stroke-miterlimit="10"/>
<path d="M-93.4828 432.268C-93.5006 424.123 -18.3813 192.286 94.7069 152.58C207.79 112.875 260.471 257.107 338.239 348.285C416.006 439.463 662.916 597.565 659.953 595.056" stroke="#F3F3F3" stroke-width="0.416343" stroke-miterlimit="10"/>
<path d="M-99.4663 422.243C-99.4793 414.72 -11.7293 205.365 97.1962 164.889C206.122 124.413 258.796 242.289 338.333 328.498C417.87 414.707 665.364 591.891 662.022 589.068" stroke="#F3F3F3" stroke-width="0.416343" stroke-miterlimit="10"/>
<path d="M-105.44 412.2C-105.453 405.301 -5.06123 218.453 99.7031 177.205C204.471 135.948 257.13 227.443 338.444 308.677C419.757 389.91 667.829 586.202 664.109 583.06" stroke="#F3F3F3" stroke-width="0.416343" stroke-miterlimit="10"/>
<path d="M-111.428 402.133C-111.441 395.858 1.60327 231.552 102.205 189.515C202.806 147.477 255.462 212.562 338.548 288.815C421.634 365.068 670.283 580.498 666.191 577.038" stroke="#F3F3F3" stroke-width="0.416343" stroke-miterlimit="10"/>
<path d="M-117.394 392.075C-117.403 386.419 8.29854 244.682 104.728 201.869C201.158 159.056 253.812 197.682 338.671 268.948C423.53 340.215 672.749 574.804 668.286 571.027" stroke="#F3F3F3" stroke-width="0.416343" stroke-miterlimit="10"/>
<path d="M-123.351 382.003C-123.36 376.973 15.0072 257.83 107.259 214.242C199.511 170.653 252.158 182.788 338.795 249.057C425.432 315.327 675.205 569.092 670.37 564.996" stroke="#F3F3F3" stroke-width="0.416343" stroke-miterlimit="10"/>
<path d="M-129.268 371.978C-129.277 367.575 21.7536 271.064 109.818 226.704C197.882 182.344 250.526 167.96 338.931 229.215C427.336 290.47 677.653 563.418 672.439 559.007" stroke="#F3F3F3" stroke-width="0.416343" stroke-miterlimit="10"/>
<path d="M-135.1 362.03C-135.106 358.255 28.5691 284.414 112.436 239.291C196.302 194.162 248.935 153.239 339.105 209.47C429.274 265.702 680.096 557.798 674.517 553.073" stroke="#F3F3F3" stroke-width="0.416343" stroke-miterlimit="10"/>
<path d="M-140.848 352.172C-140.854 349.027 35.4495 297.886 115.1 252.005C194.751 206.122 247.365 138.651 339.289 189.852C431.213 241.053 682.519 552.244 676.562 547.2" stroke="#F3F3F3" stroke-width="0.416343" stroke-miterlimit="10"/>
<path d="M-146.542 342.397C-146.544 339.882 42.3672 311.46 117.793 264.828C193.22 218.201 245.814 124.191 339.48 170.344C433.146 216.497 684.915 546.752 678.585 541.396" stroke="#F3F3F3" stroke-width="0.416343" stroke-miterlimit="10"/>
<path d="M-152.178 332.657C-152.182 330.766 49.3363 325.064 120.533 277.691C191.73 230.319 244.301 109.784 339.703 150.89C435.104 191.997 687.327 541.28 680.625 535.611" stroke="#F3F3F3" stroke-width="0.416343" stroke-miterlimit="10"/>
<path d="M-157.804 322.948C-157.807 321.689 56.3004 338.696 123.266 290.587C190.233 242.478 242.777 95.4241 339.91 131.484C437.044 167.544 689.713 535.833 682.639 529.851" stroke="#F3F3F3" stroke-width="0.416343" stroke-miterlimit="10"/>
<path d="M-163.403 313.244C-163.402 312.614 63.2848 352.325 126.018 303.476C188.751 254.626 241.263 81.0811 340.13 112.088C438.998 143.095 692.101 530.381 684.656 524.076" stroke="#F3F3F3" stroke-width="0.416343" stroke-miterlimit="10"/>
<path d="M-169 303.575C-169 303.575 70.2652 365.979 128.766 316.396C187.273 266.813 239.747 66.7793 340.343 92.7419C440.938 118.704 694.481 524.96 686.664 518.344" stroke="#F3F3F3" stroke-width="0.416343" stroke-miterlimit="10"/>
</g>
<g clip-path="url(#clip1_1065_50717)">
<path d="M1095.27 287.262C1095.27 287.262 962.85 132.885 852.998 136.573C743.147 140.26 479.611 272.658 496.655 361.351C513.7 450.044 303.02 416.155 303.02 416.155" stroke="#F3F3F3" stroke-width="0.416343" stroke-miterlimit="10"/>
<path d="M1090.92 289.12C1091.02 288.838 969.054 133.043 858.5 135.562C747.946 138.08 492.074 271.668 504.631 358.824C517.195 445.98 306.242 413.387 306.242 413.387" stroke="#F3F3F3" stroke-width="0.416343" stroke-miterlimit="10"/>
<path d="M1086.55 290.972C1086.75 290.408 975.25 133.197 863.988 134.542C752.725 135.887 504.525 270.672 512.601 356.289C520.67 441.907 309.451 410.609 309.451 410.609" stroke="#F3F3F3" stroke-width="0.416343" stroke-miterlimit="10"/>
<path d="M1082.18 292.836C1082.48 291.991 981.446 133.36 869.472 133.537C757.498 133.714 516.977 269.691 520.565 353.77C524.147 437.85 312.661 407.848 312.661 407.848" stroke="#F3F3F3" stroke-width="0.416343" stroke-miterlimit="10"/>
<path d="M1077.83 294.706C1078.22 293.582 987.653 133.533 874.973 132.54C762.293 131.547 529.448 268.714 528.542 351.256C527.643 433.797 315.884 405.092 315.884 405.092" stroke="#F3F3F3" stroke-width="0.416343" stroke-miterlimit="10"/>
<path d="M1073.47 296.568C1073.96 295.162 993.851 133.695 880.461 131.531C767.072 129.368 541.892 267.728 536.512 348.732C531.118 429.736 319.093 402.325 319.093 402.325" stroke="#F3F3F3" stroke-width="0.416343" stroke-miterlimit="10"/>
<path d="M1069.1 298.42C1069.7 296.733 1000.05 133.85 885.954 130.517C771.86 127.184 554.357 266.736 544.482 346.2C534.601 425.666 322.309 399.551 322.309 399.551" stroke="#F3F3F3" stroke-width="0.416343" stroke-miterlimit="10"/>
<path d="M1064.75 300.283C1065.45 298.315 1006.25 134.016 891.45 129.51C776.646 125.007 566.815 265.75 552.452 343.678C538.09 421.606 325.525 396.787 325.525 396.787" stroke="#F3F3F3" stroke-width="0.416343" stroke-miterlimit="10"/>
<path d="M1060.38 302.143C1061.17 299.894 1012.44 134.177 896.93 128.504C781.421 122.832 579.257 264.767 560.415 341.155C541.572 417.543 328.734 394.022 328.734 394.022" stroke="#F3F3F3" stroke-width="0.416343" stroke-miterlimit="10"/>
<path d="M1056 303.998C1056.89 301.467 1018.62 134.336 902.403 127.493C786.185 120.651 591.697 263.775 568.366 338.629C545.035 413.482 331.937 391.253 331.937 391.253" stroke="#F3F3F3" stroke-width="0.416343" stroke-miterlimit="10"/>
<path d="M1051.66 305.851C1052.65 303.042 1024.84 134.491 907.914 126.479C790.992 118.467 604.172 262.783 576.359 336.096C548.543 409.409 335.178 388.478 335.178 388.478" stroke="#F3F3F3" stroke-width="0.416343" stroke-miterlimit="10"/>
<path d="M1047.29 307.699C1048.38 304.608 1031.03 134.644 913.394 125.462C795.762 116.28 616.612 261.788 584.319 333.563C552.025 405.34 338.381 385.705 338.381 385.705" stroke="#F3F3F3" stroke-width="0.416343" stroke-miterlimit="10"/>
<path d="M1042.92 309.576C1044.11 306.204 1037.21 134.823 918.866 124.474C800.525 114.125 629.049 260.819 592.27 331.06C555.489 401.301 341.584 382.957 341.584 382.957" stroke="#F3F3F3" stroke-width="0.416343" stroke-miterlimit="10"/>
<path d="M1038.57 311.422C1039.86 307.769 1043.42 134.974 924.373 123.453C805.328 111.933 641.52 259.821 600.258 328.522C558.997 397.222 344.819 380.177 344.819 380.177" stroke="#F3F3F3" stroke-width="0.416343" stroke-miterlimit="10"/>
<path d="M1034.19 313.273C1035.58 309.338 1049.59 135.13 929.836 122.44C810.084 109.75 653.946 258.83 608.201 325.993C562.459 393.157 348.015 377.407 348.015 377.407" stroke="#F3F3F3" stroke-width="0.416343" stroke-miterlimit="10"/>
<path d="M1029.83 315.14C1031.32 310.924 1055.78 135.3 935.323 121.444C814.865 107.588 666.393 257.852 616.17 323.479C565.949 389.106 351.232 374.648 351.232 374.648" stroke="#F3F3F3" stroke-width="0.416343" stroke-miterlimit="10"/>
<path d="M1025.46 317.002C1027.04 312.507 1061.96 135.468 940.793 120.441C819.629 105.415 678.826 256.87 624.121 320.96C569.412 385.05 354.435 371.888 354.435 371.888" stroke="#F3F3F3" stroke-width="0.416343" stroke-miterlimit="10"/>
<path d="M1021.1 318.854C1022.78 314.078 1068.15 135.625 946.285 119.431C824.417 103.237 691.28 255.882 632.094 318.432C572.908 380.985 357.657 369.118 357.657 369.118" stroke="#F3F3F3" stroke-width="0.416343" stroke-miterlimit="10"/>
<path d="M1016.74 320.703C1018.52 315.646 1074.34 135.78 951.76 118.418C829.185 101.055 703.714 254.887 640.05 315.903C576.384 376.92 360.872 366.345 360.872 366.345" stroke="#F3F3F3" stroke-width="0.416343" stroke-miterlimit="10"/>
<path d="M1012.37 322.568C1014.26 317.23 1080.52 135.953 957.239 117.419C833.958 98.8844 716.154 253.909 648.01 313.386C579.866 372.863 364.082 363.586 364.082 363.586" stroke="#F3F3F3" stroke-width="0.416343" stroke-miterlimit="10"/>
<path d="M1008.01 324.426C1009.99 318.807 1086.71 136.116 962.722 116.416C838.737 96.7165 728.598 252.928 655.969 310.868C583.341 368.807 367.298 360.825 367.298 360.825" stroke="#F3F3F3" stroke-width="0.416343" stroke-miterlimit="10"/>
<path d="M1003.65 326.285C1005.74 320.385 1092.89 136.282 968.201 115.415C843.513 94.5475 741.034 251.944 663.929 308.35C586.823 364.757 370.514 358.064 370.514 358.064" stroke="#F3F3F3" stroke-width="0.416343" stroke-miterlimit="10"/>
<path d="M1010.48 322.028C1012.47 316.406 1084.98 141.866 964.08 120.817C843.179 99.7699 744.813 245.394 666.917 299.505C589.02 353.616 369.223 355.419 369.603 355.293" stroke="#F3F3F3" stroke-width="0.416343" stroke-miterlimit="10"/>
<path d="M1017.34 317.781C1019.22 312.438 1077.08 147.467 959.97 126.238C842.861 105.009 748.608 238.849 669.922 290.667C591.237 342.484 367.946 352.787 368.7 352.536" stroke="#F3F3F3" stroke-width="0.416343" stroke-miterlimit="10"/>
<path d="M1024.19 313.536C1025.98 308.472 1069.16 153.078 955.848 131.669C842.529 110.259 752.4 232.303 672.925 281.826C593.45 331.348 366.663 350.162 367.803 349.78" stroke="#F3F3F3" stroke-width="0.416343" stroke-miterlimit="10"/>
<path d="M1031.05 309.288C1032.74 304.503 1061.24 158.695 951.722 137.104C842.202 115.51 756.198 225.752 675.929 272.974C595.661 320.197 365.379 347.533 366.893 347.026" stroke="#F3F3F3" stroke-width="0.416343" stroke-miterlimit="10"/>
<path d="M1037.92 305.017C1039.51 300.512 1053.31 164.299 947.595 142.524C841.877 120.749 760 219.172 678.939 264.097C597.878 309.023 364.094 344.884 365.988 344.252" stroke="#F3F3F3" stroke-width="0.416343" stroke-miterlimit="10"/>
<path d="M1044.8 300.755C1046.29 296.526 1045.38 169.918 943.465 147.958C841.553 125.998 763.807 212.592 681.954 255.217C600.102 297.842 362.816 342.242 365.09 341.48" stroke="#F3F3F3" stroke-width="0.416343" stroke-miterlimit="10"/>
<path d="M1051.67 296.481C1053.07 292.533 1037.43 175.537 939.32 153.393C841.214 131.249 767.61 206.003 684.962 246.322C602.314 286.64 361.518 339.592 364.178 338.705" stroke="#F3F3F3" stroke-width="0.416343" stroke-miterlimit="10"/>
<path d="M1058.55 292.191C1059.85 288.523 1029.46 181.147 935.17 158.82C840.881 136.494 771.412 199.389 687.972 237.403C604.532 275.416 360.233 336.928 363.26 335.915" stroke="#F3F3F3" stroke-width="0.416343" stroke-miterlimit="10"/>
<path d="M1065.44 287.909C1066.64 284.521 1021.5 186.776 931.024 164.266C840.552 141.755 775.226 192.78 690.993 228.485C606.759 264.191 358.947 334.275 362.361 333.135" stroke="#F3F3F3" stroke-width="0.416343" stroke-miterlimit="10"/>
<path d="M1072.33 283.621C1073.42 280.514 1013.51 192.41 926.863 169.715C840.209 147.016 779.038 186.159 694.006 219.554C608.975 252.949 357.649 331.617 361.449 330.348" stroke="#F3F3F3" stroke-width="0.416343" stroke-miterlimit="10"/>
<path d="M1079.23 279.322C1080.23 276.496 1005.53 198.048 922.707 175.162C839.88 152.275 782.857 179.522 697.031 210.603C611.205 241.685 356.363 328.951 360.544 327.553" stroke="#F3F3F3" stroke-width="0.416343" stroke-miterlimit="10"/>
<path d="M1086.11 275.025C1087.01 272.478 997.521 203.699 918.524 180.626C839.527 157.554 786.659 172.884 700.04 201.65C613.421 230.416 355.064 326.289 359.625 324.763" stroke="#F3F3F3" stroke-width="0.416343" stroke-miterlimit="10"/>
<path d="M1092.99 270.724C1093.79 268.458 989.495 209.358 914.334 186.101C839.171 162.843 790.468 166.241 703.053 192.686C615.639 219.132 353.779 323.621 358.719 321.965" stroke="#F3F3F3" stroke-width="0.416343" stroke-miterlimit="10"/>
<path d="M1099.82 266.44C1100.52 264.457 981.42 215.053 910.102 191.613C838.784 168.173 794.246 159.626 706.046 183.743C617.847 207.861 352.493 320.969 357.82 319.186" stroke="#F3F3F3" stroke-width="0.416343" stroke-miterlimit="10"/>
<path d="M1106.57 262.188C1107.17 260.488 973.266 220.799 905.799 197.18C838.333 173.558 797.971 153.058 708.991 174.843C620.012 196.629 351.204 318.341 356.904 316.432" stroke="#F3F3F3" stroke-width="0.416343" stroke-miterlimit="10"/>
<path d="M1113.23 257.974C1113.73 256.558 965.035 226.596 901.435 202.801C837.835 179.006 801.657 146.548 711.907 165.999C622.158 185.45 349.921 315.744 356.008 313.706" stroke="#F3F3F3" stroke-width="0.416343" stroke-miterlimit="10"/>
<path d="M1119.82 253.795C1120.22 252.662 956.756 232.439 897.029 208.472C837.3 184.507 805.305 140.097 714.8 157.205C624.295 174.314 348.654 313.176 355.122 311.013" stroke="#F3F3F3" stroke-width="0.416343" stroke-miterlimit="10"/>
<path d="M1126.36 249.629C1126.66 248.778 948.425 238.293 892.574 214.158C836.722 190.024 808.911 133.667 717.655 148.434C626.399 163.201 347.369 310.617 354.216 308.327" stroke="#F3F3F3" stroke-width="0.416343" stroke-miterlimit="10"/>
<path d="M1132.89 245.477C1133.09 244.91 940.094 244.159 888.119 219.859C836.144 195.559 812.52 127.258 720.516 139.685C628.512 152.111 346.102 308.07 353.329 305.653" stroke="#F3F3F3" stroke-width="0.416343" stroke-miterlimit="10"/>
<path d="M1139.39 241.326C1139.48 241.042 931.747 250.023 883.65 225.556C835.554 201.089 816.117 120.857 723.365 130.939C630.613 141.021 344.836 305.52 352.443 302.972" stroke="#F3F3F3" stroke-width="0.416343" stroke-miterlimit="10"/>
<path d="M1145.88 237.191C1145.88 237.191 923.398 255.899 879.179 231.268C834.955 206.636 819.709 114.476 726.213 122.218C632.718 129.96 343.571 302.985 351.558 300.312" stroke="#F3F3F3" stroke-width="0.416343" stroke-miterlimit="10"/>
</g>
<defs>
<clipPath id="clip0_1065_50717">
<rect width="624.729" height="942.994" fill="white" transform="matrix(-0.202442 0.979294 0.979294 0.202442 -106.528 0)"/>
</clipPath>
<clipPath id="clip1_1065_50717">
<rect width="281.011" height="852.298" fill="white" transform="translate(1138 98) rotate(86.6565)"/>
</clipPath>
</defs>
</svg>
